<?xml version="1.0" encoding="utf-8"?>
<!-- Generator: Adobe Illustrator 19.1.0, SVG Export Plug-In . SVG Version: 6.00 Build 0)  -->
<svg version="1.1" id="Layer_1" xmlns="http://www.w3.org/2000/svg" xmlns:xlink="http://www.w3.org/1999/xlink" x="0px" y="0px"
	 viewBox="0 0 269.3 51.6" style="enable-background:new 0 0 269.3 51.6;" xml:space="preserve">
<style type="text/css">
	.st0{fill:#FFFFFF;}
</style>
<rect x="-38.4" y="76" width="359.5" height="115.5"/>
<text transform="matrix(1 0 0 1 -0.4023 -46.8617)"><tspan x="0" y="0" style="fill:#010202; font-family:'FuturaPT-Heavy'; font-size:74px; letter-spacing:-1;">un</tspan><tspan x="107.7" y="0" style="fill:#010202; font-family:'FuturaPT-Heavy'; font-size:74px; letter-spacing:-1;">c</tspan><tspan x="151" y="0" style="fill:#010202; font-family:'FuturaPT-Heavy'; font-size:74px; letter-spacing:-1;">u</tspan><tspan x="201.6" y="0" style="fill:#010202; font-family:'FuturaPT-Heavy'; font-size:74px;">t</tspan><tspan x="236.3" y="0" style="fill:#010202; font-family:'FuturaPT-Heavy'; font-size:74px;">t</tspan></text>
<path class="st0" d="M41.7,30.3c0,4.7-0.6,10.6-5.5,15.6c-4.7,4.9-10.2,5.6-15.4,5.6c-5.2,0-10.7-0.7-15.4-5.6
	C0.6,40.9,0,35.1,0,30.3V1.1h11.4V30c0,2.1,0.1,5.8,2.6,8.3c2,2.1,4.7,2.6,6.9,2.6c2.1,0,4.9-0.4,6.9-2.6c2.4-2.5,2.6-6.1,2.6-8.3
	V1.1h11.4V30.3z"/>
<path class="st0" d="M52.7,50.5V1.1h9.9l23.8,31.8V1.1h11.4v49.4h-9.9l-23.8-32v32H52.7z"/>
<path class="st0" d="M144.4,48.9c-4.4,2.2-7.9,2.7-10.9,2.7c-9.1,0-15.2-3.1-19.4-7.2c-4.4-4.3-7.7-10.8-7.7-18.7
	c0-7.8,3.3-14.3,7.7-18.6c4.4-4.2,10.7-7.1,18.4-7.1c3.3,0,7,0.7,11.8,2.7v13.2c-2.5-2.7-6.3-5.3-11.5-5.3c-4.1,0-7.5,1.3-10.1,3.8
	c-2.7,2.7-4.7,6.7-4.7,11.4c0,5.1,2.1,8.7,4.3,10.9c1,1,4.6,4.1,10.7,4.1c3,0,7-0.8,11.3-5.1V48.9z"/>
<path class="st0" d="M195.7,30.3c0,4.7-0.6,10.6-5.5,15.6c-4.7,4.9-10.2,5.6-15.4,5.6c-5.2,0-10.7-0.7-15.4-5.6
	c-4.9-5-5.5-10.9-5.5-15.6V1.1h11.4V30c0,2.1,0.1,5.8,2.6,8.3c2,2.1,4.7,2.6,6.9,2.6c2.1,0,4.9-0.4,6.9-2.6c2.4-2.5,2.6-6.1,2.6-8.3
	V1.1h11.4V30.3z"/>
<path class="st0" d="M223.9,10.7v39.7h-11.4V10.7h-10.7V1.1h33.9l-4,9.6H223.9z"/>
<path class="st0" d="M258.6,10.7v39.7h-11.4V10.7h-10.7l4-9.6h28.9v9.6H258.6z"/>
<path class="st0" d="M49.7,138.3c0,4.7-0.6,10.6-5.5,15.6c-4.7,4.9-10.2,5.6-15.4,5.6c-5.2,0-10.7-0.7-15.4-5.6
	c-4.9-5-5.5-10.9-5.5-15.6v-29.2h11.4V138c0,2.1,0.1,5.8,2.6,8.3c2,2.1,4.7,2.6,6.9,2.6c2.1,0,4.9-0.4,6.9-2.6
	c2.4-2.5,2.6-6.1,2.6-8.3v-28.9h11.4V138.3z"/>
<path class="st0" d="M58.7,158.5v-49.4h9.9l23.8,31.8v-31.8h11.4v49.4h-9.9l-23.8-32v32H58.7z"/>
<path class="st0" d="M148.4,156.9c-4.4,2.2-7.9,2.7-10.9,2.7c-9.1,0-15.2-3.1-19.4-7.2c-4.4-4.3-7.7-10.8-7.7-18.7
	c0-7.8,3.3-14.3,7.7-18.6c4.4-4.2,10.7-7.1,18.4-7.1c3.3,0,7,0.7,11.8,2.7v13.2c-2.5-2.7-6.3-5.3-11.5-5.3c-4.1,0-7.5,1.3-10.1,3.8
	c-2.7,2.7-4.7,6.7-4.7,11.4c0,5.1,2.1,8.7,4.3,10.9c1,1,4.6,4.1,10.7,4.1c3,0,7-0.8,11.3-5.1V156.9z"/>
<path class="st0" d="M197.7,138.3c0,4.7-0.6,10.6-5.5,15.6c-4.7,4.9-10.2,5.6-15.4,5.6c-5.2,0-10.7-0.7-15.4-5.6
	c-4.9-5-5.5-10.9-5.5-15.6v-29.2h11.4V138c0,2.1,0.1,5.8,2.6,8.3c2,2.1,4.7,2.6,6.9,2.6c2.1,0,4.9-0.4,6.9-2.6
	c2.4-2.5,2.6-6.1,2.6-8.3v-28.9h11.4V138.3z"/>
<path class="st0" d="M223.9,118.7v39.7h-11.4v-39.7h-10.7v-9.6h34.9l-4,9.6H223.9z"/>
<path class="st0" d="M258.6,118.7v39.7h-11.4v-39.7h-12.7l4-9.6h30.9v9.6H258.6z"/>
</svg>
