<svg id="Layer_1" xmlns="http://www.w3.org/2000/svg" viewBox="0 0 269.3 51.6"><style>.st0{fill:#FFF}</style><path d="M-38.4 76h359.5v115.5H-38.4z"/><text transform="translate(-.402 -46.862)"><tspan x="0" y="0" fill="#010202" font-family="FuturaPT-Heavy" font-size="74" letter-spacing="-1">un</tspan><tspan x="107.7" y="0" fill="#010202" font-family="FuturaPT-Heavy" font-size="74" letter-spacing="-1">c</tspan><tspan x="151" y="0" fill="#010202" font-family="FuturaPT-Heavy" font-size="74" letter-spacing="-1">u</tspan><tspan x="201.6" y="0" fill="#010202" font-family="FuturaPT-Heavy" font-size="74">t</tspan><tspan x="236.3" y="0" fill="#010202" font-family="FuturaPT-Heavy" font-size="74">t</tspan></text><path class="st0" d="M41.7 30.3c0 4.7-.6 10.6-5.5 15.6-4.7 4.9-10.2 5.6-15.4 5.6-5.2 0-10.7-.7-15.4-5.6C.6 40.9 0 35.1 0 30.3V1.1h11.4V30c0 2.1.1 5.8 2.6 8.3 2 2.1 4.7 2.6 6.9 2.6 2.1 0 4.9-.4 6.9-2.6 2.4-2.5 2.6-6.1 2.6-8.3V1.1h11.4v29.2zM52.7 50.5V1.1h9.9l23.8 31.8V1.1h11.4v49.4h-9.9l-23.8-32v32H52.7zM144.4 48.9c-4.4 2.2-7.9 2.7-10.9 2.7-9.1 0-15.2-3.1-19.4-7.2-4.4-4.3-7.7-10.8-7.7-18.7 0-7.8 3.3-14.3 7.7-18.6 4.4-4.2 10.7-7.1 18.4-7.1 3.3 0 7 .7 11.8 2.7v13.2c-2.5-2.7-6.3-5.3-11.5-5.3-4.1 0-7.5 1.3-10.1 3.8-2.7 2.7-4.7 6.7-4.7 11.4 0 5.1 2.1 8.7 4.3 10.9 1 1 4.6 4.1 10.7 4.1 3 0 7-.8 11.3-5.1v13.2zM195.7 30.3c0 4.7-.6 10.6-5.5 15.6-4.7 4.9-10.2 5.6-15.4 5.6-5.2 0-10.7-.7-15.4-5.6-4.9-5-5.5-10.9-5.5-15.6V1.1h11.4V30c0 2.1.1 5.8 2.6 8.3 2 2.1 4.7 2.6 6.9 2.6 2.1 0 4.9-.4 6.9-2.6 2.4-2.5 2.6-6.1 2.6-8.3V1.1h11.4v29.2zM223.9 10.7v39.7h-11.4V10.7h-10.7V1.1h33.9l-4 9.6h-7.8zM258.6 10.7v39.7h-11.4V10.7h-10.7l4-9.6h28.9v9.6h-10.8zM49.7 138.3c0 4.7-.6 10.6-5.5 15.6-4.7 4.9-10.2 5.6-15.4 5.6-5.2 0-10.7-.7-15.4-5.6-4.9-5-5.5-10.9-5.5-15.6v-29.2h11.4V138c0 2.1.1 5.8 2.6 8.3 2 2.1 4.7 2.6 6.9 2.6 2.1 0 4.9-.4 6.9-2.6 2.4-2.5 2.6-6.1 2.6-8.3v-28.9h11.4v29.2zM58.7 158.5v-49.4h9.9l23.8 31.8v-31.8h11.4v49.4h-9.9l-23.8-32v32H58.7zM148.4 156.9c-4.4 2.2-7.9 2.7-10.9 2.7-9.1 0-15.2-3.1-19.4-7.2-4.4-4.3-7.7-10.8-7.7-18.7 0-7.8 3.3-14.3 7.7-18.6 4.4-4.2 10.7-7.1 18.4-7.1 3.3 0 7 .7 11.8 2.7v13.2c-2.5-2.7-6.3-5.3-11.5-5.3-4.1 0-7.5 1.3-10.1 3.8-2.7 2.7-4.7 6.7-4.7 11.4 0 5.1 2.1 8.7 4.3 10.9 1 1 4.6 4.1 10.7 4.1 3 0 7-.8 11.3-5.1v13.2zM197.7 138.3c0 4.7-.6 10.6-5.5 15.6-4.7 4.9-10.2 5.6-15.4 5.6-5.2 0-10.7-.7-15.4-5.6-4.9-5-5.5-10.9-5.5-15.6v-29.2h11.4V138c0 2.1.1 5.8 2.6 8.3 2 2.1 4.7 2.6 6.9 2.6 2.1 0 4.9-.4 6.9-2.6 2.4-2.5 2.6-6.1 2.6-8.3v-28.9h11.4v29.2zM223.9 118.7v39.7h-11.4v-39.7h-10.7v-9.6h34.9l-4 9.6h-8.8zM258.6 118.7v39.7h-11.4v-39.7h-12.7l4-9.6h30.9v9.6h-10.8z"/></svg>